# xmcd CD database file
# Copyright (C) 1993-1998 Ti Kan
#
# Track frame offsets:
#     150
#     14607
#     34130
#     50825
#     73310
#     91107
#     108042
#     124052
#     138565
#     155867
#     169392
#
# Disc length: 2475 seconds
#
# Revision: 0
# Processed by: cddbd v1.4b41PL1 Copyright (c) Steve Scherf et al.
# Submitted via: Clarion 0.9.3
#
DISCID=a009a90b
DTITLE=Nancy Buchan - Tangle James
DYEAR=1900
DGENRE=
TTITLE0=Winds of Change
TTITLE1=The Rain
TTITLE2=Shake Your Boots
TTITLE3=I Still Dream About You
TTITLE4=Redline
TTITLE5=Mister Time
TTITLE6=The Dog Song
TTITLE7=Go Down to the River
TTITLE8=The Bridge
TTITLE9=Tell Me
TTITLE10=The Time Has Come
EXTD=
EXTT0=
EXTT1=
EXTT2=
EXTT3=
EXTT4=
EXTT5=
EXTT6=
EXTT7=
EXTT8=
EXTT9=
EXTT10=
PLAYORDER=
